<?xml version="1.0"?>
<svg xmlns="http://www.w3.org/2000/svg" xmlns:xlink="http://www.w3.org/1999/xlink" xmlns:svgjs="http://svgjs.com/svgjs" version="1.1" width="60" height="60" x="0" y="0" viewBox="0 0 24 24" style="enable-background:new 0 0 512 512" xml:space="preserve" class=""><g><path xmlns="http://www.w3.org/2000/svg" d="m12 16c-.205 0-.401-.084-.542-.232l-5.25-5.5c-.456-.477-.117-1.268.542-1.268h2.75v-5.75c0-.689.561-1.25 1.25-1.25h2.5c.689 0 1.25.561 1.25 1.25v5.75h2.75c.659 0 .998.791.542 1.268l-5.25 5.5c-.141.148-.337.232-.542.232z" fill="#bffbcf" data-original="#00bcd4" style="" class=""/><path xmlns="http://www.w3.org/2000/svg" d="m22.25 22h-20.5c-.965 0-1.75-.785-1.75-1.75v-.5c0-.965.785-1.75 1.75-1.75h20.5c.965 0 1.75.785 1.75 1.75v.5c0 .965-.785 1.75-1.75 1.75z" fill="#a19c9c" data-original="#607d8b" style="" class=""/><path xmlns="http://www.w3.org/2000/svg" d="m12 2h-1.25c-.689 0-1.25.561-1.25 1.25v5.75h-2.75c-.659 0-.998.791-.542 1.268l5.25 5.5c.141.148.337.232.542.232z" fill="#88a590" data-original="#00a4b9" style="" class=""/><path xmlns="http://www.w3.org/2000/svg" d="m12 18h-10.25c-.965 0-1.75.785-1.75 1.75v.5c0 .965.785 1.75 1.75 1.75h10.25z" fill="#6a6767" data-original="#546d79" style="" class=""/></g></svg>
